<svg id="レイヤー_1" data-name="レイヤー 1" xmlns="http://www.w3.org/2000/svg" viewBox="0 0 272.13 181.42"><defs><style>.cls-1{fill:#221714;}</style></defs><path class="cls-1" d="M557,246.51,485.28,257,504,206.93,332.53,232,284.88,359.25l143.46-21-18.76,50.08,28.05-4.11,18.76-50.08h0l71.72-10.49ZM350.44,255l43.68-6.38-8.62,23L341.83,278Zm53,39.59,43.68-6.39-8.61,23-43.68,6.39Zm62.43-56.46-8.61,23-43.67,6.39,8.61-23ZM323.08,328.07l8.61-23,43.67-6.39-8.61,23ZM510.2,300.7l-43.67,6.38,8.61-23,43.68-6.39Z" transform="translate(-284.88 -206.93)"/></svg>