<?xml version="1.0" encoding="utf-8"?>
<!-- Generator: Adobe Illustrator 26.3.1, SVG Export Plug-In . SVG Version: 6.00 Build 0)  -->
<svg version="1.1" id="tanaka" xmlns="http://www.w3.org/2000/svg" xmlns:xlink="http://www.w3.org/1999/xlink" x="0px" y="0px"
	 viewBox="0 0 480 480" style="enable-background:new 0 0 480 480;" xml:space="preserve">
<style type="text/css">
	.st0{fill:none;}
</style>
<circle class="st0" cx="240" cy="240" r="240"/>
<path d="M400,179.883l-84.344,12.337l22.054-58.886l-201.675,29.495L80,312.454l168.692-24.676l-22.053,58.888l32.982-4.824
	l22.055-58.89l0.001,0v0l84.342-12.335L400,179.883z M157.095,189.853l51.357-7.511l-10.128,27.041l-51.357,7.511L157.095,189.853z
	 M219.384,236.405l51.358-7.511l-10.127,27.041l-51.358,7.511L219.384,236.405z M292.798,170.007l-10.126,27.037l-51.36,7.512
	l10.125-27.037L292.798,170.007z M124.915,275.781l10.127-27.039l51.358-7.514l-10.128,27.042L124.915,275.781z M344.961,243.596
	l-51.358,7.511l10.127-27.041l51.36-7.513L344.961,243.596z"/>
</svg>
