<?xml version="1.0" encoding="UTF-8"?><svg id="_イヤー_1" xmlns="http://www.w3.org/2000/svg" viewBox="0 0 960 960"><defs><style>.cls-1{fill:none;}.cls-2{fill:blue;}</style></defs><circle class="cls-1" cx="480" cy="480" r="480" transform="translate(-198.82 480) rotate(-45)"/><path class="cls-2" d="M800,359.77l-168.69,24.67,44.11-117.77-403.35,58.99-112.07,299.25,337.38-49.35-44.11,117.78,65.96-9.65,44.11-117.78h0l168.68-24.67,67.96-181.47Zm-485.81,19.94l102.71-15.02-20.26,54.08-102.71,15.02,20.25-54.08Zm124.58,93.1l102.72-15.02-20.25,54.08-102.71,15.02,20.25-54.08Zm146.83-132.8l-20.25,54.07-102.72,15.02,20.25-54.07,102.72-15.02Zm-335.77,211.55l20.25-54.08,102.72-15.03-20.26,54.08-102.71,15.02Zm440.09-64.37l-102.72,15.02,20.25-54.08,102.72-15.03-20.26,54.09Z"/></svg>